<mxfile host="65bd71144e">
    <diagram id="JC-xDjBQ9XYINw1ZAezt" name="Page-1">
        <mxGraphModel dx="1160" dy="662" grid="1" gridSize="10" guides="1" tooltips="1" connect="1" arrows="1" fold="1" page="1" pageScale="1" pageWidth="827" pageHeight="1169" math="0" shadow="0">
            <root>
                <mxCell id="0"/>
                <mxCell id="1" parent="0"/>
                <mxCell id="2" value="HAS_ACCOUNT" style="rhombus;whiteSpace=wrap;html=1;" vertex="1" parent="1">
                    <mxGeometry x="50" y="20" width="180" height="190" as="geometry"/>
                </mxCell>
                <mxCell id="3" value="DIRECTOR_OF" style="rhombus;whiteSpace=wrap;html=1;" vertex="1" parent="1">
                    <mxGeometry x="248" y="42.5" width="166" height="145" as="geometry"/>
                </mxCell>
                <mxCell id="4" value="OWNS" style="rhombus;whiteSpace=wrap;html=1;" vertex="1" parent="1">
                    <mxGeometry x="100" y="610" width="90" height="75" as="geometry"/>
                </mxCell>
                <mxCell id="5" value="SENT_TO" style="rhombus;whiteSpace=wrap;html=1;" vertex="1" parent="1">
                    <mxGeometry x="590" y="47.5" width="160" height="135" as="geometry"/>
                </mxCell>
                <mxCell id="6" value="persons" style="rounded=0;whiteSpace=wrap;html=1;" vertex="1" parent="1">
                    <mxGeometry x="85" y="524" width="120" height="60" as="geometry"/>
                </mxCell>
                <mxCell id="7" value="companies" style="rounded=0;whiteSpace=wrap;html=1;" vertex="1" parent="1">
                    <mxGeometry x="85" y="720" width="120" height="60" as="geometry"/>
                </mxCell>
                <mxCell id="8" value="account" style="rounded=0;whiteSpace=wrap;html=1;" vertex="1" parent="1">
                    <mxGeometry x="414" y="270" width="120" height="60" as="geometry"/>
                </mxCell>
                <mxCell id="9" value="transactions" style="rounded=0;whiteSpace=wrap;html=1;" vertex="1" parent="1">
                    <mxGeometry x="590" y="270" width="120" height="60" as="geometry"/>
                </mxCell>
                <mxCell id="10" value="shares" style="rounded=0;whiteSpace=wrap;html=1;" vertex="1" parent="1">
                    <mxGeometry x="248" y="610" width="120" height="60" as="geometry"/>
                </mxCell>
            </root>
        </mxGraphModel>
    </diagram>
</mxfile>